<?xml version="1.0" encoding="utf-8" ?>
<svg baseProfile="full" height="3506.8992854mm" version="1.1" viewBox="32.019722599999994,32.0221356,964.8821951999998,3506.8992854" width="964.8821951999998mm" xmlns="http://www.w3.org/2000/svg" xmlns:ev="http://www.w3.org/2001/xml-events" xmlns:xlink="http://www.w3.org/1999/xlink"><defs /><path d="M 981.757574,47.165666 L 981.757574,3523.779287 M 981.757574,3523.779287 L 47.163228,3523.779287 M 47.163228,3523.779287 L 47.163228,47.165666 M 47.163228,47.165666 L 981.757574,47.165666 Z" fill="none" stroke="red" stroke-width="0.2" /><path d="M 981.759378,514.471158 C 981.759378,256.385517 772.543057,47.166073 514.461277,47.166073 M 514.461277,47.166073 C 256.379472,47.166073 47.163177,256.385517 47.163177,514.471158 M 47.163177,514.471158 C 47.163177,772.556799 256.379472,981.776243 514.461277,981.776243 M 514.461277,981.776243 C 772.543057,981.776243 981.759378,772.556799 981.759378,514.471158 Z" fill="none" stroke="black" stroke-width="0.2" /><path d="M 360.933721,3248.971988 C 356.009016,3264.732358 347.144264,3290.341349 347.144264,3319.890287 M 347.144264,3319.890287 C 347.144264,3426.268459 432.836498,3458.772077 473.220618,3458.772077 M 473.220618,3458.772077 C 507.694768,3458.772077 533.304166,3436.117588 533.304166,3399.673312 M 533.304166,3399.673312 C 533.304166,3311.025585 431.851918,3271.627671 360.933721,3248.971988 Z" fill="none" stroke="black" stroke-width="0.2" /><path d="M 236.827238,3484.381398 L 229.931925,3494.231239 M 229.931925,3494.231239 C 225.638385,3491.121694 219.964076,3487.120940 213.396144,3482.204821 M 213.396144,3482.204821 L 213.396144,3482.185873 M 213.396144,3482.185873 C 176.414811,3454.388214 111.735387,3397.303086 111.735387,3306.101211 M 111.735387,3306.101211 C 111.735387,3263.475083 137.672902,3189.850313 213.385883,3162.290704 M 213.385883,3162.290704 L 213.385883,3162.286411 M 213.385883,3162.286411 C 232.142081,3155.459297 253.953848,3151.459382 279.181204,3151.459382 M 279.181204,3151.459382 C 291.364848,3151.459382 303.332236,3152.375255 315.057282,3154.121581 M 315.057282,3154.121581 L 315.057282,3154.124324 M 315.057282,3154.124324 C 449.099229,3174.135232 549.063164,3303.189761 549.063164,3416.417602 M 549.063164,3416.417602 C 549.063164,3465.666703 525.424705,3523.780024 463.370193,3523.780024 M 463.370193,3523.780024 C 387.527673,3523.780024 331.384224,3431.192858 331.384224,3319.890287 M 331.384224,3319.890287 C 331.384224,3294.281143 336.308878,3268.671466 346.157906,3245.032550 M 346.157906,3245.032550 C 335.938114,3242.342614 325.423454,3239.872845 315.057282,3237.704345 M 315.057282,3237.704345 L 315.036098,3237.704345 M 315.036098,3237.704345 C 287.385227,3231.931585 260.637452,3228.288768 242.737183,3228.288768 M 242.737183,3228.288768 C 232.540327,3228.288768 222.707200,3228.797429 213.396144,3229.932402 M 213.396144,3229.932402 L 213.374275,3229.932402 M 213.374275,3229.932402 C 163.206760,3236.036759 127.494741,3260.249969 127.494741,3320.876620 M 127.494741,3320.876620 C 127.494741,3386.175498 179.588363,3438.011006 213.396144,3466.007419 M 213.396144,3466.007419 L 213.396144,3466.015344 M 213.396144,3466.015344 C 223.438491,3474.332472 231.863036,3480.544982 236.827238,3484.381398 Z" fill="none" stroke="black" stroke-width="0.2" /><path d="M 493.904295,3229.545713 C 519.514709,3229.545713 543.153524,3209.847098 543.153524,3166.506469 M 543.153524,3166.506469 C 543.153524,3104.454218 473.220618,3034.520525 424.957723,3007.926928 M 424.957723,3007.926928 L 426.927213,3005.956675 M 426.927213,3005.956675 L 549.063164,3046.340237 M 549.063164,3046.340237 C 529.363000,3019.746310 527.393129,2979.361885 527.393129,2929.128330 M 527.393129,2929.128330 L 527.393129,2892.684766 M 527.393129,2892.684766 L 511.634156,2888.744972 M 511.634156,2888.744972 L 511.634156,2956.707752 M 511.634156,2956.707752 L 123.555354,2842.450170 M 123.555354,2842.450170 L 123.555354,2919.279556 M 123.555354,2919.279556 L 367.828932,2991.182283 M 367.828932,2991.182283 C 414.121321,3004.972425 519.514709,3086.724637 519.514709,3133.017381 M 519.514709,3133.017381 C 519.514709,3141.883277 516.559571,3145.822385 509.665376,3145.822385 M 509.665376,3145.822385 C 504.739986,3145.822385 499.814240,3140.897985 481.100130,3140.897985 M 481.100130,3140.897985 C 463.370193,3140.897985 444.655346,3149.762179 444.655346,3178.327552 M 444.655346,3178.327552 C 444.655346,3202.951760 461.400677,3229.545713 493.904295,3229.545713 Z" fill="none" stroke="black" stroke-width="0.2" /><path d="M 360.933721,2586.176489 C 356.009016,2601.934979 347.144264,2627.544808 347.144264,2657.093594 M 347.144264,2657.093594 C 347.144264,2763.471765 432.836498,2795.975206 473.220618,2795.975206 M 473.220618,2795.975206 C 507.694768,2795.975206 533.304166,2773.320895 533.304166,2736.877483 M 533.304166,2736.877483 C 533.304166,2648.229425 431.851918,2608.829250 360.933721,2586.176489 Z" fill="none" stroke="black" stroke-width="0.2" /><path d="M 213.374275,2567.135023 C 163.206760,2573.239888 127.494741,2597.453606 127.494741,2658.078885 M 127.494741,2658.078885 C 127.494741,2723.377408 179.588363,2775.214312 213.396144,2803.211589 M 213.396144,2803.211589 L 213.396144,2803.219514 M 213.396144,2803.219514 C 223.438491,2811.537151 231.863036,2817.749127 236.827238,2821.584552 M 236.827238,2821.584552 L 229.931925,2831.435561 M 229.931925,2831.435561 C 225.638385,2828.325001 219.964076,2824.324247 213.396144,2819.407595 M 213.396144,2819.407595 L 213.396144,2819.388646 M 213.396144,2819.388646 C 176.414811,2791.590835 111.735387,2734.506393 111.735387,2643.303984 M 111.735387,2643.303984 C 111.735387,2600.678365 137.672902,2527.054306 213.385883,2499.494188 M 213.385883,2499.494188 L 213.385883,2499.490226 M 213.385883,2499.490226 C 232.142081,2492.663646 253.953848,2488.662866 279.181204,2488.662866 M 279.181204,2488.662866 C 291.364848,2488.662866 303.332236,2489.578562 315.057282,2491.324888 M 315.057282,2491.324888 L 315.057282,2491.327631 M 315.057282,2491.327631 C 449.099229,2511.339224 549.063164,2640.394262 549.063164,2753.621595 M 549.063164,2753.621595 C 549.063164,2802.870544 525.424705,2860.983305 463.370193,2860.983305 M 463.370193,2860.983305 C 387.527673,2860.983305 331.384224,2768.396495 331.384224,2657.093594 M 331.384224,2657.093594 C 331.384224,2631.485644 336.308878,2605.875103 346.157906,2582.236365 M 346.157906,2582.236365 C 335.938114,2579.546784 325.423454,2577.076659 315.057282,2574.908160 M 315.057282,2574.908160 L 315.036098,2574.908160 M 315.036098,2574.908160 C 287.385227,2569.134206 260.637452,2565.491034 242.737183,2565.491034 M 242.737183,2565.491034 C 232.540327,2565.491034 222.707200,2565.999872 213.396144,2567.135023 M 213.396144,2567.135023 L 213.374275,2567.135023 Z" fill="none" stroke="black" stroke-width="0.2" /><path d="M 549.063164,2453.022831 C 549.063164,2423.472674 528.378471,2404.758157 498.828949,2404.758157 M 498.828949,2404.758157 C 440.715959,2404.758157 467.311715,2471.737017 416.090837,2471.737017 M 416.090837,2471.737017 C 339.263685,2471.737017 141.284147,2346.645370 141.284147,2247.162892 M 141.284147,2247.162892 C 141.284147,2224.509089 151.134267,2213.673983 173.788832,2213.673983 M 173.788832,2213.673983 C 184.624142,2213.673983 200.383496,2215.643524 225.007272,2223.522756 M 225.007272,2223.522756 L 549.063164,2323.990196 M 549.063164,2323.990196 C 531.334675,2281.636585 527.393129,2240.268595 527.393129,2197.913943 M 527.393129,2197.913943 L 527.393129,2172.305638 M 527.393129,2172.305638 L 511.634156,2168.365158 M 511.634156,2168.365158 L 511.634156,2229.433489 M 511.634156,2229.433489 L 245.692320,2148.665350 M 245.692320,2148.665350 C 236.827238,2145.710847 198.413624,2136.845637 185.608392,2136.845637 M 185.608392,2136.845637 C 141.284147,2136.845637 117.645332,2178.214643 117.645332,2218.598357 M 117.645332,2218.598357 C 117.645332,2364.375307 369.798854,2507.194808 477.160742,2507.194808 M 477.160742,2507.194808 C 511.634156,2507.194808 549.063164,2491.436318 549.063164,2453.022831 Z" fill="none" stroke="black" stroke-width="0.2" /><path d="M 454.506508,2063.891275 C 502.770115,2063.891275 533.304166,2034.341982 533.304166,1978.198736 M 533.304166,1978.198736 C 533.304166,1927.965207 502.770115,1894.476196 465.340065,1872.806567 M 465.340065,1872.806567 C 429.881309,1852.122661 259.480736,1798.933156 213.188753,1798.933156 M 213.188753,1798.933156 C 165.908939,1798.933156 127.494741,1828.483135 127.494741,1884.625263 M 127.494741,1884.625263 C 127.494741,1945.694686 172.804607,1976.228509 186.593658,1985.093033 M 186.593658,1985.093033 C 229.931925,2010.703573 397.377742,2063.891275 454.506508,2063.891275 Z" fill="none" stroke="black" stroke-width="0.2" /><path d="M 390.482480,2134.809421 C 230.917191,2134.809421 111.735387,2005.777802 111.735387,1887.581899 M 111.735387,1887.581899 C 111.735387,1779.233068 188.563529,1728.014934 284.105883,1728.014934 M 284.105883,1728.014934 C 407.227075,1728.014934 549.063164,1838.332950 549.063164,1984.108427 M 549.063164,1984.108427 C 549.063164,2053.056168 489.964908,2134.809421 390.482480,2134.809421 Z" fill="none" stroke="black" stroke-width="0.2" /><path d="M 139.314301,1633.395844 L 139.314301,1718.103015 M 139.314301,1718.103015 L 123.555354,1714.164237 M 123.555354,1714.164237 L 123.555354,1446.251362 M 123.555354,1446.251362 L 139.314301,1450.189784 M 139.314301,1450.189784 L 139.314301,1536.868554 M 139.314301,1536.868554 L 761.816002,1711.208719 M 761.816002,1711.208719 L 763.787652,1709.239508 M 763.787652,1709.239508 L 123.555354,1277.820558 M 123.555354,1277.820558 L 123.555354,1266.985096 M 123.555354,1266.985096 L 775.606526,1239.405776 M 775.606526,1239.405776 L 775.606526,1237.435803 M 775.606526,1237.435803 L 192.503704,1073.929805 M 192.503704,1073.929805 C 185.608392,1071.960239 177.729947,1069.990697 169.848428,1069.990697 M 169.848428,1069.990697 C 151.134267,1069.990697 139.314301,1086.735190 139.314301,1142.879502 M 139.314301,1142.879502 L 123.555354,1138.939378 M 123.555354,1138.939378 L 123.555354,959.673773 M 123.555354,959.673773 L 139.314301,963.613237 M 139.314301,963.613237 C 139.314301,977.402897 139.314301,1013.847452 147.194880,1025.667570 M 147.194880,1025.667570 C 161.968866,1047.335777 175.758373,1050.290965 337.294195,1095.600450 M 337.294195,1095.600450 L 801.216609,1226.601357 M 801.216609,1226.601357 L 801.216609,1135.984139 M 801.216609,1135.984139 L 816.975938,1139.923577 M 816.975938,1139.923577 L 816.975938,1330.023654 M 816.975938,1330.023654 L 269.331846,1353.664552 M 269.331846,1353.664552 L 269.331846,1355.633408 M 269.331846,1355.633408 L 816.975938,1724.999446 M 816.975938,1724.999446 L 816.975938,1903.279048 M 816.975938,1903.279048 L 801.216609,1899.338492 M 801.216609,1899.338492 L 801.216609,1818.571141 M 801.216609,1818.571141 L 139.314301,1633.395844 Z" fill="none" stroke="black" stroke-width="0.2" /><rect fill="none" height="3486.6158359999995" stroke="blue" stroke-width="0.1" width="944.5965106" x="42.1633396" y="42.165701799999994" /><rect fill="none" height="2.001316800000005" stroke="blue" stroke-width="0.1" width="2.0012914000000013" x="32.019722599999994" y="32.0221356" /><rect fill="none" height="2.001316800000005" stroke="blue" stroke-width="0.1" width="2.0012913999998827" x="994.9006264" y="32.0221356" /><rect fill="none" height="2.0013168000005406" stroke="blue" stroke-width="0.1" width="2.0012914000000013" x="32.019722599999994" y="3536.9201041999995" /><rect fill="none" height="2.0013168000005406" stroke="blue" stroke-width="0.1" width="2.0012913999998827" x="994.9006264" y="3536.9201041999995" /><rect fill="none" height="2.001316800000005" stroke="blue" stroke-width="0.1" width="2.001291400000018" x="352.98001539999996" y="32.0221356" /><rect fill="none" height="2.0013168000005406" stroke="blue" stroke-width="0.1" width="2.001291400000018" x="352.98001539999996" y="3536.9201041999995" /><rect fill="none" height="2.001316800000005" stroke="blue" stroke-width="0.1" width="2.0012914000000634" x="673.9403335999999" y="32.0221356" /><rect fill="none" height="2.0013168000005406" stroke="blue" stroke-width="0.1" width="2.0012914000000634" x="673.9403335999999" y="3536.9201041999995" /><rect fill="none" height="2.0013167999999992" stroke="blue" stroke-width="0.1" width="2.0012914000000013" x="32.019722599999994" y="421.4552403999999" /><rect fill="none" height="2.0013167999999992" stroke="blue" stroke-width="0.1" width="2.0012913999998827" x="994.9006264" y="421.4552403999999" /><rect fill="none" height="2.001316799999909" stroke="blue" stroke-width="0.1" width="2.0012914000000013" x="32.019722599999994" y="810.8883452" /><rect fill="none" height="2.001316799999909" stroke="blue" stroke-width="0.1" width="2.0012913999998827" x="994.9006264" y="810.8883452" /><rect fill="none" height="2.0013167999999992" stroke="blue" stroke-width="0.1" width="2.0012914000000013" x="32.019722599999994" y="1200.32145" /><rect fill="none" height="2.0013167999999992" stroke="blue" stroke-width="0.1" width="2.0012913999998827" x="994.9006264" y="1200.32145" /><rect fill="none" height="2.0013167999999992" stroke="blue" stroke-width="0.1" width="2.0012914000000013" x="32.019722599999994" y="1589.7545548" /><rect fill="none" height="2.0013167999999992" stroke="blue" stroke-width="0.1" width="2.0012913999998827" x="994.9006264" y="1589.7545548" /><rect fill="none" height="2.0013168000001795" stroke="blue" stroke-width="0.1" width="2.0012914000000013" x="32.019722599999994" y="1979.1876595999997" /><rect fill="none" height="2.0013168000001795" stroke="blue" stroke-width="0.1" width="2.0012913999998827" x="994.9006264" y="1979.1876595999997" /><rect fill="none" height="2.001316799999819" stroke="blue" stroke-width="0.1" width="2.0012914000000013" x="32.019722599999994" y="2368.6207644" /><rect fill="none" height="2.001316799999819" stroke="blue" stroke-width="0.1" width="2.0012913999998827" x="994.9006264" y="2368.6207644" /><rect fill="none" height="2.001316799999819" stroke="blue" stroke-width="0.1" width="2.0012914000000013" x="32.019722599999994" y="2758.0538946" /><rect fill="none" height="2.001316799999819" stroke="blue" stroke-width="0.1" width="2.0012913999998827" x="994.9006264" y="2758.0538946" /><rect fill="none" height="2.0013168000001795" stroke="blue" stroke-width="0.1" width="2.0012914000000013" x="32.019722599999994" y="3147.4869993999996" /><rect fill="none" height="2.0013168000001795" stroke="blue" stroke-width="0.1" width="2.0012913999998827" x="994.9006264" y="3147.4869993999996" /></svg>